<?xml version="1.0" encoding="UTF-8" standalone="yes"?><svg xmlns="http://www.w3.org/2000/svg" xmlns:xlink="http://www.w3.org/1999/xlink" height="523px" style="width:665px;height:523px;" version="1.1" viewBox="0 0 665 523" width="665px"><defs><filter height="300%" id="f1" width="300%" x="-1" y="-1"><feGaussianBlur result="blurOut" stdDeviation="2.0"/><feColorMatrix in="blurOut" result="blurOut2" type="matrix" values="0 0 0 0 0 0 0 0 0 0 0 0 0 0 0 0 0 0 .4 0"/><feOffset dx="4.0" dy="4.0" in="blurOut2" result="blurOut3"/><feBlend in="SourceGraphic" in2="blurOut3" mode="normal"/></filter></defs><g><rect fill="#FEFECE" filter="url(#f1)" height="33.9688" style="stroke: #A80036; stroke-width: 1.5;" width="150" x="370.625" y="10"/><line style="stroke: #A80036; stroke-width: 1.5;" x1="375.625" x2="375.625" y1="10" y2="43.9688"/><line style="stroke: #A80036; stroke-width: 1.5;" x1="515.625" x2="515.625" y1="10" y2="43.9688"/><text fill="#000000" font-family="sans-serif" font-size="12" lengthAdjust="spacingAndGlyphs" textLength="130" x="380.625" y="31.1387">before each prompt</text><polygon fill="#FEFECE" filter="url(#f1)" points="407.125,63.9688,484.125,63.9688,496.125,75.9688,484.125,87.9688,407.125,87.9688,395.125,75.9688,407.125,63.9688" style="stroke: #A80036; stroke-width: 1.5;"/><text fill="#000000" font-family="sans-serif" font-size="11" lengthAdjust="spacingAndGlyphs" textLength="77" x="407.125" y="79.7769">.envrc found?</text><text fill="#000000" font-family="sans-serif" font-size="11" lengthAdjust="spacingAndGlyphs" textLength="20" x="375.125" y="73.3745">yes</text><text fill="#000000" font-family="sans-serif" font-size="11" lengthAdjust="spacingAndGlyphs" textLength="14" x="496.125" y="73.3745">no</text><polygon fill="#FEFECE" filter="url(#f1)" points="293.25,97.9688,381.25,97.9688,393.25,109.9688,381.25,121.9688,293.25,121.9688,281.25,109.9688,293.25,97.9688" style="stroke: #A80036; stroke-width: 1.5;"/><text fill="#000000" font-family="sans-serif" font-size="11" lengthAdjust="spacingAndGlyphs" textLength="88" x="293.25" y="113.7769">.envrc allowed?</text><text fill="#000000" font-family="sans-serif" font-size="11" lengthAdjust="spacingAndGlyphs" textLength="20" x="261.25" y="107.3745">yes</text><text fill="#000000" font-family="sans-serif" font-size="11" lengthAdjust="spacingAndGlyphs" textLength="14" x="393.25" y="107.3745">no</text><polygon fill="#FEFECE" filter="url(#f1)" points="217.5,131.9688,322.5,131.9688,334.5,143.9688,322.5,155.9688,217.5,155.9688,205.5,143.9688,217.5,131.9688" style="stroke: #A80036; stroke-width: 1.5;"/><text fill="#000000" font-family="sans-serif" font-size="11" lengthAdjust="spacingAndGlyphs" textLength="105" x="217.5" y="147.7769">.envrc not loaded?</text><text fill="#000000" font-family="sans-serif" font-size="11" lengthAdjust="spacingAndGlyphs" textLength="20" x="185.5" y="141.3745">yes</text><text fill="#000000" font-family="sans-serif" font-size="11" lengthAdjust="spacingAndGlyphs" textLength="14" x="334.5" y="141.3745">no</text><polygon fill="#FEFECE" filter="url(#f1)" points="136.5,165.9688,254.5,165.9688,266.5,177.9688,254.5,189.9688,136.5,189.9688,124.5,177.9688,136.5,165.9688" style="stroke: #A80036; stroke-width: 1.5;"/><text fill="#000000" font-family="sans-serif" font-size="11" lengthAdjust="spacingAndGlyphs" textLength="118" x="136.5" y="181.7769">.envrc has changed?</text><text fill="#000000" font-family="sans-serif" font-size="11" lengthAdjust="spacingAndGlyphs" textLength="20" x="104.5" y="175.3745">yes</text><text fill="#000000" font-family="sans-serif" font-size="11" lengthAdjust="spacingAndGlyphs" textLength="14" x="266.5" y="175.3745">no</text><rect fill="#FEFECE" filter="url(#f1)" height="33.9688" rx="12.5" ry="12.5" style="stroke: #A80036; stroke-width: 1.5;" width="209" x="10" y="199.9688"/><text fill="#000000" font-family="sans-serif" font-size="12" lengthAdjust="spacingAndGlyphs" textLength="189" x="20" y="221.1074">unload previous environment</text><rect fill="#FEFECE" filter="url(#f1)" height="33.9688" rx="12.5" ry="12.5" style="stroke: #A80036; stroke-width: 1.5;" width="133" x="48" y="268.9375"/><text fill="#000000" font-family="sans-serif" font-size="12" lengthAdjust="spacingAndGlyphs" textLength="113" x="58" y="290.0762">load environment</text><polygon fill="#FEFECE" filter="url(#f1)" points="195.5,308.9063,207.5,320.9063,195.5,332.9063,183.5,320.9063,195.5,308.9063" style="stroke: #A80036; stroke-width: 1.5;"/><polygon fill="#FEFECE" filter="url(#f1)" points="270,338.9063,282,350.9063,270,362.9063,258,350.9063,270,338.9063" style="stroke: #A80036; stroke-width: 1.5;"/><polygon fill="#FEFECE" filter="url(#f1)" points="337.25,368.9063,349.25,380.9063,337.25,392.9063,325.25,380.9063,337.25,368.9063" style="stroke: #A80036; stroke-width: 1.5;"/><rect fill="#FEFECE" filter="url(#f1)" height="33.9688" rx="12.5" ry="12.5" style="stroke: #A80036; stroke-width: 1.5;" width="209" x="449.5" y="97.9688"/><text fill="#000000" font-family="sans-serif" font-size="12" lengthAdjust="spacingAndGlyphs" textLength="189" x="459.5" y="119.1074">unload previous environment</text><polygon fill="#FEFECE" filter="url(#f1)" points="445.625,398.9063,457.625,410.9063,445.625,422.9063,433.625,410.9063,445.625,398.9063" style="stroke: #A80036; stroke-width: 1.5;"/><rect fill="#FEFECE" filter="url(#f1)" height="33.9688" rx="12.5" ry="12.5" style="stroke: #A80036; stroke-width: 1.5;" width="288" x="301.625" y="442.9063"/><text fill="#000000" font-family="sans-serif" font-size="12" lengthAdjust="spacingAndGlyphs" textLength="268" x="311.625" y="464.0449">calculate env diff and eval in parent shell</text><ellipse cx="445.625" cy="506.875" fill="none" filter="url(#f1)" rx="10" ry="10" style="stroke: #000000; stroke-width: 1.0;"/><ellipse cx="446.125" cy="507.375" fill="#000000" filter="url(#f1)" rx="6" ry="6" style="stroke: none; stroke-width: 1.0;"/><line style="stroke: #A80036; stroke-width: 1.5;" x1="114.5" x2="114.5" y1="233.9375" y2="268.9375"/><polygon fill="#A80036" points="110.5,258.9375,114.5,268.9375,118.5,258.9375,114.5,262.9375" style="stroke: #A80036; stroke-width: 1.0;"/><line style="stroke: #A80036; stroke-width: 1.5;" x1="124.5" x2="114.5" y1="177.9688" y2="177.9688"/><line style="stroke: #A80036; stroke-width: 1.5;" x1="114.5" x2="114.5" y1="177.9688" y2="199.9688"/><polygon fill="#A80036" points="110.5,189.9688,114.5,199.9688,118.5,189.9688,114.5,193.9688" style="stroke: #A80036; stroke-width: 1.0;"/><line style="stroke: #A80036; stroke-width: 1.5;" x1="266.5" x2="276.5" y1="177.9688" y2="177.9688"/><polygon fill="#A80036" points="272.5,239.4375,276.5,249.4375,280.5,239.4375,276.5,243.4375" style="stroke: #A80036; stroke-width: 1.5;"/><line style="stroke: #A80036; stroke-width: 1.5;" x1="276.5" x2="276.5" y1="177.9688" y2="320.9063"/><line style="stroke: #A80036; stroke-width: 1.5;" x1="276.5" x2="207.5" y1="320.9063" y2="320.9063"/><polygon fill="#A80036" points="217.5,316.9063,207.5,320.9063,217.5,324.9063,213.5,320.9063" style="stroke: #A80036; stroke-width: 1.0;"/><line style="stroke: #A80036; stroke-width: 1.5;" x1="114.5" x2="114.5" y1="302.9063" y2="320.9063"/><line style="stroke: #A80036; stroke-width: 1.5;" x1="114.5" x2="183.5" y1="320.9063" y2="320.9063"/><polygon fill="#A80036" points="173.5,316.9063,183.5,320.9063,173.5,324.9063,177.5,320.9063" style="stroke: #A80036; stroke-width: 1.0;"/><line style="stroke: #A80036; stroke-width: 1.5;" x1="205.5" x2="195.5" y1="143.9688" y2="143.9688"/><line style="stroke: #A80036; stroke-width: 1.5;" x1="195.5" x2="195.5" y1="143.9688" y2="165.9688"/><polygon fill="#A80036" points="191.5,155.9688,195.5,165.9688,199.5,155.9688,195.5,159.9688" style="stroke: #A80036; stroke-width: 1.0;"/><line style="stroke: #A80036; stroke-width: 1.5;" x1="334.5" x2="344.5" y1="143.9688" y2="143.9688"/><polygon fill="#A80036" points="340.5,237.4375,344.5,247.4375,348.5,237.4375,344.5,241.4375" style="stroke: #A80036; stroke-width: 1.5;"/><line style="stroke: #A80036; stroke-width: 1.5;" x1="344.5" x2="344.5" y1="143.9688" y2="350.9063"/><line style="stroke: #A80036; stroke-width: 1.5;" x1="344.5" x2="282" y1="350.9063" y2="350.9063"/><polygon fill="#A80036" points="292,346.9063,282,350.9063,292,354.9063,288,350.9063" style="stroke: #A80036; stroke-width: 1.0;"/><line style="stroke: #A80036; stroke-width: 1.5;" x1="195.5" x2="195.5" y1="332.9063" y2="350.9063"/><line style="stroke: #A80036; stroke-width: 1.5;" x1="195.5" x2="258" y1="350.9063" y2="350.9063"/><polygon fill="#A80036" points="248,346.9063,258,350.9063,248,354.9063,252,350.9063" style="stroke: #A80036; stroke-width: 1.0;"/><line style="stroke: #A80036; stroke-width: 1.5;" x1="281.25" x2="270" y1="109.9688" y2="109.9688"/><line style="stroke: #A80036; stroke-width: 1.5;" x1="270" x2="270" y1="109.9688" y2="131.9688"/><polygon fill="#A80036" points="266,121.9688,270,131.9688,274,121.9688,270,125.9688" style="stroke: #A80036; stroke-width: 1.0;"/><line style="stroke: #A80036; stroke-width: 1.5;" x1="393.25" x2="404.5" y1="109.9688" y2="109.9688"/><polygon fill="#A80036" points="400.5,235.4375,404.5,245.4375,408.5,235.4375,404.5,239.4375" style="stroke: #A80036; stroke-width: 1.5;"/><line style="stroke: #A80036; stroke-width: 1.5;" x1="404.5" x2="404.5" y1="109.9688" y2="380.9063"/><line style="stroke: #A80036; stroke-width: 1.5;" x1="404.5" x2="349.25" y1="380.9063" y2="380.9063"/><polygon fill="#A80036" points="359.25,376.9063,349.25,380.9063,359.25,384.9063,355.25,380.9063" style="stroke: #A80036; stroke-width: 1.0;"/><line style="stroke: #A80036; stroke-width: 1.5;" x1="270" x2="270" y1="362.9063" y2="380.9063"/><line style="stroke: #A80036; stroke-width: 1.5;" x1="270" x2="325.25" y1="380.9063" y2="380.9063"/><polygon fill="#A80036" points="315.25,376.9063,325.25,380.9063,315.25,384.9063,319.25,380.9063" style="stroke: #A80036; stroke-width: 1.0;"/><line style="stroke: #A80036; stroke-width: 1.5;" x1="395.125" x2="337.25" y1="75.9688" y2="75.9688"/><line style="stroke: #A80036; stroke-width: 1.5;" x1="337.25" x2="337.25" y1="75.9688" y2="97.9688"/><polygon fill="#A80036" points="333.25,87.9688,337.25,97.9688,341.25,87.9688,337.25,91.9688" style="stroke: #A80036; stroke-width: 1.0;"/><line style="stroke: #A80036; stroke-width: 1.5;" x1="496.125" x2="554" y1="75.9688" y2="75.9688"/><line style="stroke: #A80036; stroke-width: 1.5;" x1="554" x2="554" y1="75.9688" y2="97.9688"/><polygon fill="#A80036" points="550,87.9688,554,97.9688,558,87.9688,554,91.9688" style="stroke: #A80036; stroke-width: 1.0;"/><line style="stroke: #A80036; stroke-width: 1.5;" x1="337.25" x2="337.25" y1="392.9063" y2="410.9063"/><line style="stroke: #A80036; stroke-width: 1.5;" x1="337.25" x2="433.625" y1="410.9063" y2="410.9063"/><polygon fill="#A80036" points="423.625,406.9063,433.625,410.9063,423.625,414.9063,427.625,410.9063" style="stroke: #A80036; stroke-width: 1.0;"/><line style="stroke: #A80036; stroke-width: 1.5;" x1="554" x2="554" y1="131.9375" y2="410.9063"/><line style="stroke: #A80036; stroke-width: 1.5;" x1="554" x2="457.625" y1="410.9063" y2="410.9063"/><polygon fill="#A80036" points="467.625,406.9063,457.625,410.9063,467.625,414.9063,463.625,410.9063" style="stroke: #A80036; stroke-width: 1.0;"/><line style="stroke: #A80036; stroke-width: 1.5;" x1="445.625" x2="445.625" y1="43.9688" y2="63.9688"/><polygon fill="#A80036" points="441.625,53.9688,445.625,63.9688,449.625,53.9688,445.625,57.9688" style="stroke: #A80036; stroke-width: 1.0;"/><line style="stroke: #A80036; stroke-width: 1.5;" x1="445.625" x2="445.625" y1="422.9063" y2="442.9063"/><polygon fill="#A80036" points="441.625,432.9063,445.625,442.9063,449.625,432.9063,445.625,436.9063" style="stroke: #A80036; stroke-width: 1.0;"/><line style="stroke: #A80036; stroke-width: 1.5;" x1="445.625" x2="445.625" y1="476.875" y2="496.875"/><polygon fill="#A80036" points="441.625,486.875,445.625,496.875,449.625,486.875,445.625,490.875" style="stroke: #A80036; stroke-width: 1.0;"/></g></svg>